. 
 
http://www.torrenting.com          :     Once & For all ;)


               www . Torrenting . Com 

(((((((((((((= Enjoy No RAR releases =))))))))))))))))))))


...................................NFO:....................................

.[IMG]http://i.imgur.com/SG3CA.jpg[/IMG]
 
http://www.imdb.com/title/tt1840388/

When radio talk show psychiatrist, Dr. Sonny Blake, moves back to her hometown, she takes notice of her neighborhood paper boy's unusual behavior. 


General
Complete name                            : C:UsersrootDesktopRosewood.Lane.2011.DVDRip.XviD.AC3-GBRRosewood.Lane.2011.DVDRip.XviD.AC3-GBR.avi
Format                                   : AVI
Format/Info                              : Audio Video Interleave
File size                                : 1.17 GiB
Duration                                 : 1h 36mn
Overall bit rate                         : 1 736 Kbps
Writing application                      : VirtualDubMod 1.5.10.2 (build 2540/release)
Writing library                          : VirtualDubMod build 2540/release

Video
ID                                       : 0
Format                                   : MPEG-4 Visual
Format profile                           : Advanced Simple@L5
Format settings, BVOP                    : 2
Format settings, QPel                    : Yes
Format settings, GMC                     : No warppoints
Format settings, Matrix                  : Default (H.263)
Codec ID                                 : XVID
Codec ID/Hint                            : XviD
Duration                                 : 1h 36mn
Bit rate                                 : 1 503 Kbps
Width                                    : 720 pixels
Height                                   : 400 pixels
Display aspect ratio                     : 16:9
Frame rate                               : 23.976 fps
Color space                              : YUV
Chroma subsampling                       : 4:2:0
Bit depth                                : 8 bits
Scan type                                : Progressive
Compression mode                         : Lossy
Bits/(Pixel*Frame)                       : 0.218
Stream size                              : 1.01 GiB (87%)
Writing library                          : XviD 1.2.1 (UTC 2008-12-04)

Audio
ID                                       : 1
Format                                   : AC-3
Format/Info                              : Audio Coding 3
Mode extension                           : CM (complete main)
Codec ID                                 : 2000
Duration                                 : 1h 35mn
Bit rate mode                            : Constant
Bit rate                                 : 224 Kbps
Channel(s)                               : 2 channels
Channel positions                        : Front: L R
Sampling rate                            : 48.0 KHz
Bit depth                                : 16 bits
Compression mode                         : Lossy
Stream size                              : 153 MiB (13%)
Alignment                                : Split accross interleaves
Interleave, duration                     : 42 ms (1.00 video frame)
Interleave, preload duration             : 500 ms

Source Rosewood Lane 2011 NTSC DVDR-BKZ-thanks

[IMG]http://i.imgur.com/Agt36.png[/IMG]
[IMG]http://i.imgur.com/Nb5iK.png[/IMG]
[IMG]http://i.imgur.com/urYn3.png[/IMG]
[IMG]http://i.imgur.com/Lx2j7.png[/IMG]